<?xml version="1.0" standalone="no"?>
<!DOCTYPE svg PUBLIC "-//W3C//DTD SVG 20010904//EN"
 "http://www.w3.org/TR/2001/REC-SVG-20010904/DTD/svg10.dtd">
<svg version="1.0" xmlns="http://www.w3.org/2000/svg"
 width="980.000000pt" height="900.000000pt" viewBox="0 0 980.000000 900.000000"
 preserveAspectRatio="xMidYMid meet">

<g transform="translate(0.000000,900.000000) scale(0.100000,-0.100000)"
fill="#000000" stroke="none">
<path d="M2507 8990 c-567 -41 -1086 -242 -1517 -586 -105 -84 -305 -283 -390
-389 -160 -197 -322 -475 -414 -712 -210 -539 -242 -1155 -91 -1753 147 -586
460 -1164 994 -1835 414 -521 1075 -1202 1996 -2056 461 -427 1806 -1649 1815
-1649 10 0 1369 1235 1815 1649 773 718 1365 1314 1759 1771 889 1033 1292
1880 1323 2780 26 760 -252 1476 -777 2001 -218 218 -425 367 -705 504 -889
439 -1951 358 -2817 -213 -160 -106 -300 -222 -455 -378 l-143 -142 -147 147
c-168 167 -264 247 -443 366 -337 225 -702 376 -1087 450 -213 41 -510 60
-716 45z m319 -980 c366 -30 721 -164 1024 -388 108 -80 324 -301 402 -412 37
-52 96 -152 130 -222 l63 -127 455 -1 456 0 28 64 c129 298 376 577 689 781
117 76 327 175 462 218 605 194 1236 77 1702 -314 268 -226 470 -571 543 -931
95 -463 16 -937 -243 -1453 -342 -685 -973 -1424 -2212 -2590 -408 -384 -1411
-1300 -1425 -1300 -22 0 -1253 1133 -1769 1629 -1232 1183 -1851 2008 -2065
2754 -306 1064 251 2056 1269 2262 91 18 157 26 341 39 12 0 79 -4 150 -9z"/>
</g>
</svg>
