<?xml version="1.0" standalone="no"?>
<!DOCTYPE svg PUBLIC "-//W3C//DTD SVG 20010904//EN"
 "http://www.w3.org/TR/2001/REC-SVG-20010904/DTD/svg10.dtd">
<svg version="1.0" xmlns="http://www.w3.org/2000/svg"
 width="980.000000pt" height="980.000000pt" viewBox="0 0 980.000000 980.000000"
 preserveAspectRatio="xMidYMid meet">

<g transform="translate(0.000000,980.000000) scale(0.100000,-0.100000)"
fill="#000000" stroke="none">
<path d="M4680 9775 c-236 -45 -446 -156 -630 -334 -67 -65 -3019 -3134 -3717
-3864 -216 -226 -317 -423 -330 -647 -10 -179 45 -320 176 -450 82 -81 153
-124 266 -161 66 -22 88 -23 422 -27 l353 -4 0 -1461 c1 -804 5 -1520 10
-1592 24 -356 155 -658 384 -890 170 -171 339 -266 576 -321 67 -15 163 -18
932 -21 l858 -4 2 1758 c3 1922 -1 1782 62 1850 63 69 49 68 856 68 807 0 793
1 856 -68 63 -68 59 72 62 -1849 l2 -1758 768 0 c422 0 820 5 885 10 172 14
273 43 424 119 270 135 504 425 606 746 66 209 61 68 67 1820 l5 1590 355 6
c351 5 356 5 435 32 44 14 109 43 144 64 129 77 242 232 277 379 47 199 -33
468 -201 679 -49 61 -3561 3721 -3810 3970 -127 127 -223 196 -368 265 -165
79 -268 102 -477 106 -123 2 -197 -1 -250 -11z m361 -611 c95 -28 184 -82 268
-163 70 -67 3534 -3667 3701 -3846 81 -87 143 -199 127 -232 l-10 -23 -583 0
-584 0 -2 -1867 -3 -1868 -23 -73 c-66 -214 -200 -379 -360 -444 -57 -23 -58
-23 -599 -26 l-542 -3 -4 1403 c-3 1384 -4 1404 -25 1513 -91 469 -322 701
-742 745 -124 13 -1396 13 -1520 0 -451 -48 -693 -320 -755 -850 -13 -104 -15
-352 -15 -1467 l0 -1343 -523 0 c-448 0 -531 2 -578 16 -182 53 -328 219 -401
456 l-23 73 -3 1867 -2 1868 -584 0 -583 0 -10 23 c-9 18 -4 35 29 99 38 73
146 188 1894 2005 1020 1061 1884 1956 1921 1990 69 65 173 124 258 148 70 19
210 18 276 -1z"/>
</g>
</svg>
