<?xml version="1.0" standalone="no"?>
<!DOCTYPE svg PUBLIC "-//W3C//DTD SVG 20010904//EN"
 "http://www.w3.org/TR/2001/REC-SVG-20010904/DTD/svg10.dtd">
<svg version="1.0" xmlns="http://www.w3.org/2000/svg"
 width="962.000000pt" height="998.000000pt" viewBox="0 0 962.000000 998.000000"
 preserveAspectRatio="xMidYMid meet">

<g transform="translate(0.000000,998.000000) scale(0.100000,-0.100000)"
fill="#000000" stroke="none">
<path d="M4620 9970 c-597 -38 -1157 -251 -1655 -629 -126 -95 -429 -396 -525
-521 -429 -560 -640 -1172 -640 -1861 0 -493 95 -907 305 -1334 134 -273 276
-481 483 -711 177 -196 434 -409 657 -542 58 -35 105 -65 105 -67 0 -2 -30
-13 -67 -25 -133 -44 -401 -154 -558 -229 -776 -375 -1452 -958 -1947 -1681
-342 -498 -597 -1112 -717 -1725 -39 -198 -55 -324 -49 -379 16 -141 149 -259
292 -259 72 1 121 20 177 70 68 62 85 102 118 288 83 453 204 819 407 1225
444 888 1160 1597 2045 2024 1493 722 3203 478 4494 -639 765 -663 1299 -1595
1471 -2570 35 -199 39 -213 73 -267 37 -58 98 -104 166 -123 122 -36 272 37
328 158 36 77 39 119 17 263 -99 669 -360 1346 -730 1899 -601 897 -1466 1570
-2482 1929 l-117 42 107 64 c394 239 772 618 1013 1015 606 999 580 2270 -66
3240 -220 330 -521 630 -855 852 -440 294 -935 458 -1485 493 -173 11 -192 11
-365 0z m520 -525 c436 -65 856 -252 1216 -541 529 -425 887 -1071 955 -1723
15 -143 6 -451 -16 -581 -83 -489 -304 -922 -655 -1284 -409 -421 -926 -683
-1505 -761 -181 -25 -491 -23 -673 4 -837 125 -1557 645 -1917 1386 -114 233
-179 441 -215 687 -27 183 -27 463 0 646 111 758 575 1438 1259 1846 311 185
655 299 1011 335 125 13 408 5 540 -14z"/>
</g>
</svg>
